<mxfile host="app.diagrams.net" modified="2023-05-07T22:08:55.672Z" agent="Mozilla/5.0 (Windows NT 10.0; Win64; x64) AppleWebKit/537.36 (KHTML, like Gecko) Chrome/113.0.0.0 Safari/537.36" etag="OYDq2OYnwUvFTKc8dlTF" version="21.1.8" type="github">
  <diagram name="Page-1" id="8ce9d11a-91a2-4d17-14d8-a56ed91bf033">
    <mxGraphModel dx="2880" dy="1710" grid="1" gridSize="10" guides="1" tooltips="1" connect="1" arrows="1" fold="1" page="1" pageScale="1" pageWidth="1100" pageHeight="850" background="none" math="0" shadow="0">
      <root>
        <mxCell id="0" />
        <mxCell id="1" parent="0" />
        <mxCell id="17ea667e15c223fc-28" style="edgeStyle=orthogonalEdgeStyle;rounded=1;html=1;labelBackgroundColor=none;startArrow=none;startFill=0;startSize=5;endArrow=classicThin;endFill=1;endSize=5;jettySize=auto;orthogonalLoop=1;strokeWidth=1;fontFamily=Verdana;fontSize=8" parent="1" source="17ea667e15c223fc-1" target="17ea667e15c223fc-2" edge="1">
          <mxGeometry relative="1" as="geometry" />
        </mxCell>
        <mxCell id="17ea667e15c223fc-1" value="&lt;font style=&quot;&quot;&gt;&lt;font style=&quot;font-size: 18px;&quot;&gt;限速&lt;br&gt;Qos&lt;/font&gt;&lt;br&gt;&lt;/font&gt;" style="shape=hexagon;perimeter=hexagonPerimeter;whiteSpace=wrap;html=1;rounded=0;shadow=0;labelBackgroundColor=none;strokeWidth=1;fontFamily=Verdana;fontSize=12;align=center;" parent="1" vertex="1">
          <mxGeometry x="380" y="-630" width="180" height="140" as="geometry" />
        </mxCell>
        <mxCell id="17ea667e15c223fc-2" value="&lt;font style=&quot;font-size: 18px;&quot;&gt;WAN上行&lt;br&gt;(pppoe-wan)&lt;/font&gt;" style="rounded=1;whiteSpace=wrap;html=1;shadow=0;labelBackgroundColor=none;strokeWidth=1;fontFamily=Verdana;fontSize=17;align=center;" parent="1" vertex="1">
          <mxGeometry x="140" y="-620" width="150" height="120" as="geometry" />
        </mxCell>
        <mxCell id="17ea667e15c223fc-43" style="edgeStyle=orthogonalEdgeStyle;rounded=1;html=1;labelBackgroundColor=none;startArrow=none;startFill=0;startSize=5;endArrow=classicThin;endFill=1;endSize=5;jettySize=auto;orthogonalLoop=1;strokeWidth=1;fontFamily=Verdana;fontSize=8" parent="1" target="17ea667e15c223fc-14" edge="1">
          <mxGeometry relative="1" as="geometry">
            <mxPoint x="520" y="180.00000000000023" as="sourcePoint" />
          </mxGeometry>
        </mxCell>
        <mxCell id="17ea667e15c223fc-44" style="edgeStyle=orthogonalEdgeStyle;rounded=1;html=1;labelBackgroundColor=none;startArrow=none;startFill=0;startSize=5;endArrow=classicThin;endFill=1;endSize=5;jettySize=auto;orthogonalLoop=1;strokeWidth=1;fontFamily=Verdana;fontSize=8" parent="1" source="17ea667e15c223fc-14" target="17ea667e15c223fc-15" edge="1">
          <mxGeometry relative="1" as="geometry" />
        </mxCell>
        <mxCell id="17ea667e15c223fc-14" value="Decide on acceptance" style="rounded=1;whiteSpace=wrap;html=1;shadow=0;labelBackgroundColor=none;strokeWidth=1;fontFamily=Verdana;fontSize=12;align=center;" parent="1" vertex="1">
          <mxGeometry x="900" y="140" width="120" height="80" as="geometry" />
        </mxCell>
        <mxCell id="17ea667e15c223fc-45" style="edgeStyle=orthogonalEdgeStyle;rounded=1;html=1;labelBackgroundColor=none;startArrow=none;startFill=0;startSize=5;endArrow=classicThin;endFill=1;endSize=5;jettySize=auto;orthogonalLoop=1;strokeColor=#000000;strokeWidth=1;fontFamily=Verdana;fontSize=8;fontColor=#000000;" parent="1" source="17ea667e15c223fc-15" target="17ea667e15c223fc-17" edge="1">
          <mxGeometry relative="1" as="geometry" />
        </mxCell>
        <mxCell id="17ea667e15c223fc-15" value="XOR" style="ellipse;whiteSpace=wrap;html=1;rounded=1;shadow=0;labelBackgroundColor=none;strokeWidth=1;fontFamily=Verdana;fontSize=12;align=center;" parent="1" vertex="1">
          <mxGeometry x="760" y="160" width="40" height="40" as="geometry" />
        </mxCell>
        <mxCell id="17ea667e15c223fc-54" style="edgeStyle=orthogonalEdgeStyle;rounded=1;html=1;labelBackgroundColor=none;startArrow=none;startFill=0;startSize=5;endArrow=classicThin;endFill=1;endSize=5;jettySize=auto;orthogonalLoop=1;strokeWidth=1;fontFamily=Verdana;fontSize=8" parent="1" source="17ea667e15c223fc-16" target="17ea667e15c223fc-18" edge="1">
          <mxGeometry relative="1" as="geometry" />
        </mxCell>
        <mxCell id="17ea667e15c223fc-16" value="Additional review&amp;nbsp;&lt;div&gt;is needed&lt;/div&gt;" style="shape=hexagon;perimeter=hexagonPerimeter;whiteSpace=wrap;html=1;rounded=0;shadow=0;labelBackgroundColor=none;strokeWidth=1;fontFamily=Verdana;fontSize=12;align=center;" parent="1" vertex="1">
          <mxGeometry x="540" y="230" width="120" height="80" as="geometry" />
        </mxCell>
        <mxCell id="17ea667e15c223fc-46" style="edgeStyle=orthogonalEdgeStyle;rounded=1;html=1;labelBackgroundColor=none;startArrow=none;startFill=0;startSize=5;endArrow=classicThin;endFill=1;endSize=5;jettySize=auto;orthogonalLoop=1;strokeColor=#000000;strokeWidth=1;fontFamily=Verdana;fontSize=8;fontColor=#000000;" parent="1" source="17ea667e15c223fc-17" target="17ea667e15c223fc-19" edge="1">
          <mxGeometry relative="1" as="geometry" />
        </mxCell>
        <mxCell id="17ea667e15c223fc-49" style="edgeStyle=orthogonalEdgeStyle;rounded=1;html=1;labelBackgroundColor=none;startArrow=none;startFill=0;startSize=5;endArrow=classicThin;endFill=1;endSize=5;jettySize=auto;orthogonalLoop=1;strokeColor=#000000;strokeWidth=1;fontFamily=Verdana;fontSize=8;fontColor=#000000;" parent="1" source="17ea667e15c223fc-17" target="17ea667e15c223fc-20" edge="1">
          <mxGeometry relative="1" as="geometry" />
        </mxCell>
        <mxCell id="17ea667e15c223fc-53" style="edgeStyle=orthogonalEdgeStyle;rounded=1;html=1;labelBackgroundColor=none;startArrow=none;startFill=0;startSize=5;endArrow=classicThin;endFill=1;endSize=5;jettySize=auto;orthogonalLoop=1;strokeColor=#000000;strokeWidth=1;fontFamily=Verdana;fontSize=8;fontColor=#000000;" parent="1" source="17ea667e15c223fc-17" target="17ea667e15c223fc-16" edge="1">
          <mxGeometry relative="1" as="geometry" />
        </mxCell>
        <mxCell id="17ea667e15c223fc-17" value="XOR" style="ellipse;whiteSpace=wrap;html=1;rounded=1;shadow=0;labelBackgroundColor=none;strokeWidth=1;fontFamily=Verdana;fontSize=12;align=center;" parent="1" vertex="1">
          <mxGeometry x="760" y="250" width="40" height="40" as="geometry" />
        </mxCell>
        <mxCell id="17ea667e15c223fc-55" style="edgeStyle=orthogonalEdgeStyle;rounded=1;html=1;labelBackgroundColor=none;startArrow=none;startFill=0;startSize=5;endArrow=classicThin;endFill=1;endSize=5;jettySize=auto;orthogonalLoop=1;strokeWidth=1;fontFamily=Verdana;fontSize=8" parent="1" source="17ea667e15c223fc-18" target="17ea667e15c223fc-21" edge="1">
          <mxGeometry relative="1" as="geometry" />
        </mxCell>
        <mxCell id="17ea667e15c223fc-18" value="Invite additional reviewer" style="rounded=1;whiteSpace=wrap;html=1;shadow=0;labelBackgroundColor=none;strokeWidth=1;fontFamily=Verdana;fontSize=12;align=center;" parent="1" vertex="1">
          <mxGeometry x="540" y="340" width="120" height="80" as="geometry" />
        </mxCell>
        <mxCell id="17ea667e15c223fc-47" style="edgeStyle=orthogonalEdgeStyle;rounded=1;html=1;labelBackgroundColor=none;startArrow=none;startFill=0;startSize=5;endArrow=classicThin;endFill=1;endSize=5;jettySize=auto;orthogonalLoop=1;strokeWidth=1;fontFamily=Verdana;fontSize=8" parent="1" source="17ea667e15c223fc-19" target="17ea667e15c223fc-22" edge="1">
          <mxGeometry relative="1" as="geometry" />
        </mxCell>
        <mxCell id="17ea667e15c223fc-19" value="Paper should&lt;div&gt;be rejected&lt;/div&gt;" style="shape=hexagon;perimeter=hexagonPerimeter;whiteSpace=wrap;html=1;rounded=0;shadow=0;labelBackgroundColor=none;strokeWidth=1;fontFamily=Verdana;fontSize=12;align=center;" parent="1" vertex="1">
          <mxGeometry x="720" y="340" width="120" height="80" as="geometry" />
        </mxCell>
        <mxCell id="17ea667e15c223fc-50" style="edgeStyle=orthogonalEdgeStyle;rounded=1;html=1;labelBackgroundColor=none;startArrow=none;startFill=0;startSize=5;endArrow=classicThin;endFill=1;endSize=5;jettySize=auto;orthogonalLoop=1;strokeWidth=1;fontFamily=Verdana;fontSize=8" parent="1" source="17ea667e15c223fc-20" target="17ea667e15c223fc-23" edge="1">
          <mxGeometry relative="1" as="geometry" />
        </mxCell>
        <mxCell id="17ea667e15c223fc-20" value="Paper should&lt;div&gt;be accepted&lt;/div&gt;" style="shape=hexagon;perimeter=hexagonPerimeter;whiteSpace=wrap;html=1;rounded=0;shadow=0;labelBackgroundColor=none;strokeWidth=1;fontFamily=Verdana;fontSize=12;align=center;" parent="1" vertex="1">
          <mxGeometry x="900" y="340" width="120" height="80" as="geometry" />
        </mxCell>
        <mxCell id="17ea667e15c223fc-56" style="edgeStyle=orthogonalEdgeStyle;rounded=1;html=1;labelBackgroundColor=none;startArrow=none;startFill=0;startSize=5;endArrow=classicThin;endFill=1;endSize=5;jettySize=auto;orthogonalLoop=1;strokeWidth=1;fontFamily=Verdana;fontSize=8" parent="1" source="17ea667e15c223fc-21" target="17ea667e15c223fc-24" edge="1">
          <mxGeometry relative="1" as="geometry" />
        </mxCell>
        <mxCell id="17ea667e15c223fc-58" style="edgeStyle=orthogonalEdgeStyle;rounded=1;html=1;labelBackgroundColor=none;startArrow=none;startFill=0;startSize=5;endArrow=classicThin;endFill=1;endSize=5;jettySize=auto;orthogonalLoop=1;strokeWidth=1;fontFamily=Verdana;fontSize=8" parent="1" source="17ea667e15c223fc-21" target="17ea667e15c223fc-15" edge="1">
          <mxGeometry relative="1" as="geometry">
            <Array as="points">
              <mxPoint x="520" y="480" />
              <mxPoint x="520" y="180" />
            </Array>
          </mxGeometry>
        </mxCell>
        <mxCell id="17ea667e15c223fc-21" value="XOR" style="ellipse;whiteSpace=wrap;html=1;rounded=1;shadow=0;labelBackgroundColor=none;strokeWidth=1;fontFamily=Verdana;fontSize=12;align=center;" parent="1" vertex="1">
          <mxGeometry x="580" y="460" width="40" height="40" as="geometry" />
        </mxCell>
        <mxCell id="17ea667e15c223fc-48" style="edgeStyle=orthogonalEdgeStyle;rounded=1;html=1;labelBackgroundColor=none;startArrow=none;startFill=0;startSize=5;endArrow=classicThin;endFill=1;endSize=5;jettySize=auto;orthogonalLoop=1;strokeWidth=1;fontFamily=Verdana;fontSize=8" parent="1" source="17ea667e15c223fc-22" target="17ea667e15c223fc-25" edge="1">
          <mxGeometry relative="1" as="geometry">
            <Array as="points">
              <mxPoint x="780" y="580" />
            </Array>
          </mxGeometry>
        </mxCell>
        <mxCell id="17ea667e15c223fc-22" value="Reject paper" style="rounded=1;whiteSpace=wrap;html=1;shadow=0;labelBackgroundColor=none;strokeWidth=1;fontFamily=Verdana;fontSize=12;align=center;" parent="1" vertex="1">
          <mxGeometry x="720" y="440" width="120" height="80" as="geometry" />
        </mxCell>
        <mxCell id="17ea667e15c223fc-51" style="edgeStyle=orthogonalEdgeStyle;rounded=1;html=1;labelBackgroundColor=none;startArrow=none;startFill=0;startSize=5;endArrow=classicThin;endFill=1;endSize=5;jettySize=auto;orthogonalLoop=1;strokeWidth=1;fontFamily=Verdana;fontSize=8" parent="1" source="17ea667e15c223fc-23" target="17ea667e15c223fc-25" edge="1">
          <mxGeometry relative="1" as="geometry">
            <Array as="points">
              <mxPoint x="960" y="580" />
            </Array>
          </mxGeometry>
        </mxCell>
        <mxCell id="17ea667e15c223fc-23" value="Accept paper" style="rounded=1;whiteSpace=wrap;html=1;shadow=0;labelBackgroundColor=none;strokeWidth=1;fontFamily=Verdana;fontSize=12;align=center;" parent="1" vertex="1">
          <mxGeometry x="900" y="440" width="120" height="80" as="geometry" />
        </mxCell>
        <mxCell id="17ea667e15c223fc-57" style="edgeStyle=orthogonalEdgeStyle;rounded=1;html=1;labelBackgroundColor=none;startArrow=none;startFill=0;startSize=5;endArrow=classicThin;endFill=1;endSize=5;jettySize=auto;orthogonalLoop=1;strokeWidth=1;fontFamily=Verdana;fontSize=8" parent="1" source="17ea667e15c223fc-24" target="17ea667e15c223fc-27" edge="1">
          <mxGeometry relative="1" as="geometry" />
        </mxCell>
        <mxCell id="17ea667e15c223fc-24" value="Review X was received" style="shape=hexagon;perimeter=hexagonPerimeter;whiteSpace=wrap;html=1;rounded=0;shadow=0;labelBackgroundColor=none;strokeWidth=1;fontFamily=Verdana;fontSize=12;align=center;" parent="1" vertex="1">
          <mxGeometry x="540" y="540" width="120" height="80" as="geometry" />
        </mxCell>
        <mxCell id="17ea667e15c223fc-52" style="edgeStyle=orthogonalEdgeStyle;rounded=1;html=1;labelBackgroundColor=none;startArrow=none;startFill=0;startSize=5;endArrow=classicThin;endFill=1;endSize=5;jettySize=auto;orthogonalLoop=1;strokeWidth=1;fontFamily=Verdana;fontSize=8" parent="1" source="17ea667e15c223fc-25" target="17ea667e15c223fc-26" edge="1">
          <mxGeometry relative="1" as="geometry" />
        </mxCell>
        <mxCell id="17ea667e15c223fc-25" value="XOR" style="ellipse;whiteSpace=wrap;html=1;rounded=1;shadow=0;labelBackgroundColor=none;strokeWidth=1;fontFamily=Verdana;fontSize=12;align=center;" parent="1" vertex="1">
          <mxGeometry x="850" y="560" width="40" height="40" as="geometry" />
        </mxCell>
        <mxCell id="17ea667e15c223fc-26" value="End" style="shape=hexagon;perimeter=hexagonPerimeter;whiteSpace=wrap;html=1;rounded=0;shadow=0;labelBackgroundColor=none;strokeWidth=1;fontFamily=Verdana;fontSize=12;align=center;" parent="1" vertex="1">
          <mxGeometry x="810" y="660" width="120" height="80" as="geometry" />
        </mxCell>
        <mxCell id="17ea667e15c223fc-27" value="Combine review X with others" style="rounded=1;whiteSpace=wrap;html=1;shadow=0;labelBackgroundColor=none;strokeWidth=1;fontFamily=Verdana;fontSize=12;align=center;" parent="1" vertex="1">
          <mxGeometry x="540" y="660" width="120" height="80" as="geometry" />
        </mxCell>
        <mxCell id="KKP_vT6z2iglmsTxIF54-1" value="&lt;font style=&quot;font-size: 18px;&quot;&gt;LAN下行&lt;br&gt;br-lan（WIFI）&lt;br&gt;br-lan-guest&lt;br&gt;eth0&lt;/font&gt;" style="rounded=1;whiteSpace=wrap;html=1;shadow=0;labelBackgroundColor=none;strokeWidth=1;fontFamily=Verdana;fontSize=17;align=center;" vertex="1" parent="1">
          <mxGeometry x="670" y="-620" width="150" height="120" as="geometry" />
        </mxCell>
        <mxCell id="KKP_vT6z2iglmsTxIF54-3" style="edgeStyle=orthogonalEdgeStyle;rounded=1;html=1;labelBackgroundColor=none;startArrow=none;startFill=0;startSize=5;endArrow=classicThin;endFill=1;endSize=5;jettySize=auto;orthogonalLoop=1;strokeWidth=1;fontFamily=Verdana;fontSize=8;entryX=0;entryY=0.5;entryDx=0;entryDy=0;" edge="1" parent="1" source="17ea667e15c223fc-1" target="KKP_vT6z2iglmsTxIF54-1">
          <mxGeometry relative="1" as="geometry">
            <mxPoint x="390" y="10" as="sourcePoint" />
            <mxPoint x="360" y="160" as="targetPoint" />
            <Array as="points">
              <mxPoint x="620" y="-560" />
              <mxPoint x="620" y="-560" />
            </Array>
          </mxGeometry>
        </mxCell>
        <mxCell id="KKP_vT6z2iglmsTxIF54-4" value="&lt;font style=&quot;&quot;&gt;&lt;font style=&quot;font-size: 24px;&quot;&gt;总带宽&lt;br&gt;UPIMIT&lt;br&gt;31mbit&lt;/font&gt;&lt;br&gt;&lt;/font&gt;" style="rounded=1;whiteSpace=wrap;html=1;shadow=0;labelBackgroundColor=none;strokeWidth=1;fontFamily=Verdana;fontSize=12;align=center;" vertex="1" parent="1">
          <mxGeometry x="130" y="-425" width="170" height="110" as="geometry" />
        </mxCell>
        <mxCell id="KKP_vT6z2iglmsTxIF54-5" value="" style="endArrow=classic;html=1;rounded=0;entryX=0.5;entryY=0;entryDx=0;entryDy=0;exitX=0.5;exitY=1;exitDx=0;exitDy=0;" edge="1" parent="1" source="17ea667e15c223fc-2" target="KKP_vT6z2iglmsTxIF54-4">
          <mxGeometry width="50" height="50" relative="1" as="geometry">
            <mxPoint x="210" y="-490" as="sourcePoint" />
            <mxPoint x="650" y="-230" as="targetPoint" />
            <Array as="points" />
          </mxGeometry>
        </mxCell>
        <mxCell id="KKP_vT6z2iglmsTxIF54-6" value="&lt;font style=&quot;font-size: 18px;&quot;&gt;1:1 &lt;br&gt;优先级 prio 0&lt;br&gt;31mbit&lt;br&gt;&lt;/font&gt;" style="rounded=1;whiteSpace=wrap;html=1;shadow=0;labelBackgroundColor=none;strokeWidth=1;fontFamily=Verdana;fontSize=12;align=center;" vertex="1" parent="1">
          <mxGeometry x="150" y="-290" width="130" height="100" as="geometry" />
        </mxCell>
        <mxCell id="KKP_vT6z2iglmsTxIF54-7" value="" style="endArrow=classic;html=1;rounded=0;entryX=0.5;entryY=0;entryDx=0;entryDy=0;exitX=0.5;exitY=1;exitDx=0;exitDy=0;" edge="1" parent="1" source="KKP_vT6z2iglmsTxIF54-4" target="KKP_vT6z2iglmsTxIF54-6">
          <mxGeometry width="50" height="50" relative="1" as="geometry">
            <mxPoint x="225" y="-490" as="sourcePoint" />
            <mxPoint x="225" y="-420" as="targetPoint" />
            <Array as="points" />
          </mxGeometry>
        </mxCell>
        <mxCell id="KKP_vT6z2iglmsTxIF54-12" value="&lt;font style=&quot;font-size: 18px;&quot;&gt;1:11&lt;br&gt;优先级 prio 1&lt;br&gt;rate 80%&lt;br&gt;&lt;/font&gt;" style="rounded=1;whiteSpace=wrap;html=1;shadow=0;labelBackgroundColor=none;strokeWidth=1;fontFamily=Verdana;fontSize=12;align=center;" vertex="1" parent="1">
          <mxGeometry x="-380" y="-50" width="140" height="90" as="geometry" />
        </mxCell>
        <mxCell id="KKP_vT6z2iglmsTxIF54-15" value="" style="endArrow=classic;html=1;rounded=0;exitX=0.461;exitY=1.018;exitDx=0;exitDy=0;exitPerimeter=0;entryX=0.5;entryY=0;entryDx=0;entryDy=0;" edge="1" parent="1" source="KKP_vT6z2iglmsTxIF54-6" target="KKP_vT6z2iglmsTxIF54-12">
          <mxGeometry width="50" height="50" relative="1" as="geometry">
            <mxPoint x="110" y="-130" as="sourcePoint" />
            <mxPoint x="160" y="-180" as="targetPoint" />
          </mxGeometry>
        </mxCell>
        <mxCell id="KKP_vT6z2iglmsTxIF54-19" value="&lt;font style=&quot;font-size: 18px;&quot;&gt;1:12&lt;br&gt;优先级 prio 2&lt;br&gt;rate 10%&lt;br&gt;&lt;/font&gt;" style="rounded=1;whiteSpace=wrap;html=1;shadow=0;labelBackgroundColor=none;strokeWidth=1;fontFamily=Verdana;fontSize=12;align=center;" vertex="1" parent="1">
          <mxGeometry x="-190" y="-50" width="140" height="90" as="geometry" />
        </mxCell>
        <mxCell id="KKP_vT6z2iglmsTxIF54-20" value="" style="endArrow=classic;html=1;rounded=0;exitX=0.5;exitY=1;exitDx=0;exitDy=0;entryX=0.5;entryY=0;entryDx=0;entryDy=0;" edge="1" parent="1" target="KKP_vT6z2iglmsTxIF54-19" source="KKP_vT6z2iglmsTxIF54-6">
          <mxGeometry width="50" height="50" relative="1" as="geometry">
            <mxPoint x="390" y="-178" as="sourcePoint" />
            <mxPoint x="340" y="-170" as="targetPoint" />
          </mxGeometry>
        </mxCell>
        <mxCell id="KKP_vT6z2iglmsTxIF54-21" value="&lt;font style=&quot;font-size: 18px;&quot;&gt;1:13&lt;br&gt;优先级 prio 3&lt;br&gt;rate 5%&lt;br&gt;&lt;/font&gt;" style="rounded=1;whiteSpace=wrap;html=1;shadow=0;labelBackgroundColor=none;strokeWidth=1;fontFamily=Verdana;fontSize=12;align=center;" vertex="1" parent="1">
          <mxGeometry x="-10" y="-50" width="140" height="90" as="geometry" />
        </mxCell>
        <mxCell id="KKP_vT6z2iglmsTxIF54-22" value="" style="endArrow=classic;html=1;rounded=0;exitX=0.5;exitY=1;exitDx=0;exitDy=0;entryX=0.5;entryY=0;entryDx=0;entryDy=0;" edge="1" parent="1" target="KKP_vT6z2iglmsTxIF54-21" source="KKP_vT6z2iglmsTxIF54-6">
          <mxGeometry width="50" height="50" relative="1" as="geometry">
            <mxPoint x="600" y="-188" as="sourcePoint" />
            <mxPoint x="550" y="-180" as="targetPoint" />
          </mxGeometry>
        </mxCell>
        <mxCell id="KKP_vT6z2iglmsTxIF54-23" value="&lt;font style=&quot;font-size: 18px;&quot;&gt;1:14&lt;br&gt;优先级 prio 4&lt;br&gt;rate 3%&lt;br&gt;&lt;/font&gt;" style="rounded=1;whiteSpace=wrap;html=1;shadow=0;labelBackgroundColor=none;strokeWidth=1;fontFamily=Verdana;fontSize=12;align=center;" vertex="1" parent="1">
          <mxGeometry x="170" y="-50" width="140" height="90" as="geometry" />
        </mxCell>
        <mxCell id="KKP_vT6z2iglmsTxIF54-24" value="" style="endArrow=classic;html=1;rounded=0;exitX=0.5;exitY=1;exitDx=0;exitDy=0;entryX=0.5;entryY=0;entryDx=0;entryDy=0;" edge="1" parent="1" target="KKP_vT6z2iglmsTxIF54-23" source="KKP_vT6z2iglmsTxIF54-6">
          <mxGeometry width="50" height="50" relative="1" as="geometry">
            <mxPoint x="840" y="-178" as="sourcePoint" />
            <mxPoint x="790" y="-170" as="targetPoint" />
          </mxGeometry>
        </mxCell>
        <mxCell id="KKP_vT6z2iglmsTxIF54-27" value="" style="endArrow=classic;html=1;rounded=0;entryX=0.5;entryY=0;entryDx=0;entryDy=0;" edge="1" parent="1" target="KKP_vT6z2iglmsTxIF54-31">
          <mxGeometry width="50" height="50" relative="1" as="geometry">
            <mxPoint x="220" y="-190" as="sourcePoint" />
            <mxPoint x="636.5" y="-120.00000000000023" as="targetPoint" />
          </mxGeometry>
        </mxCell>
        <mxCell id="KKP_vT6z2iglmsTxIF54-28" value="&lt;font size=&quot;3&quot;&gt;除了1：16&lt;/font&gt;" style="rounded=0;whiteSpace=wrap;html=1;" vertex="1" parent="1">
          <mxGeometry x="440" y="-290" width="250" height="120" as="geometry" />
        </mxCell>
        <mxCell id="KKP_vT6z2iglmsTxIF54-29" value="&lt;font style=&quot;font-size: 18px;&quot;&gt;用户自定义&lt;br&gt;1:1X&lt;br&gt;优先级 prio X&lt;br&gt;rate 1%&lt;br style=&quot;border-color: var(--border-color);&quot;&gt;ceil&amp;nbsp; 1%&lt;br&gt;&lt;/font&gt;" style="rounded=1;whiteSpace=wrap;html=1;shadow=0;labelBackgroundColor=none;strokeWidth=1;fontFamily=Verdana;fontSize=12;align=center;" vertex="1" parent="1">
          <mxGeometry x="550" y="-65" width="160" height="120" as="geometry" />
        </mxCell>
        <mxCell id="KKP_vT6z2iglmsTxIF54-30" value="" style="endArrow=classic;html=1;rounded=0;entryX=0.5;entryY=0;entryDx=0;entryDy=0;" edge="1" parent="1" target="KKP_vT6z2iglmsTxIF54-29">
          <mxGeometry width="50" height="50" relative="1" as="geometry">
            <mxPoint x="220" y="-190" as="sourcePoint" />
            <mxPoint x="1163" y="-170" as="targetPoint" />
          </mxGeometry>
        </mxCell>
        <mxCell id="KKP_vT6z2iglmsTxIF54-31" value="&lt;font style=&quot;font-size: 18px;&quot;&gt;1:15&lt;br&gt;优先级 prio 5&lt;br&gt;rate 1%&lt;br style=&quot;border-color: var(--border-color);&quot;&gt;ceil&amp;nbsp; 1%&lt;br&gt;&lt;/font&gt;" style="rounded=1;whiteSpace=wrap;html=1;shadow=0;labelBackgroundColor=none;strokeWidth=1;fontFamily=Verdana;fontSize=12;align=center;" vertex="1" parent="1">
          <mxGeometry x="340" y="-50" width="160" height="105" as="geometry" />
        </mxCell>
      </root>
    </mxGraphModel>
  </diagram>
</mxfile>
